<?xml version="1.0" encoding="utf-8"?>
<!-- Generator: Adobe Illustrator 22.0.0, SVG Export Plug-In . SVG Version: 6.00 Build 0)  -->
<svg version="1.1" id="Layer_1" xmlns="http://www.w3.org/2000/svg" xmlns:xlink="http://www.w3.org/1999/xlink" x="0px" y="0px"
	 viewBox="0 0 450.5 198.3" style="enable-background:new 0 0 450.5 198.3;" xml:space="preserve">
<style type="text/css">
	.st0{fill:#222725;}
</style>
<title>portfolio-main</title>
<g>
	<path class="st0" d="M333.2,36.6L333.2,36.6v120l0,0h-216l0,0l0,0v-120l0,0L333.2,36.6 M333.2,24.6h-216c-6.6,0-12,5.4-12,12v120
		c0,6.6,5.4,12,12,12h216c6.6,0,12-5.4,12-12v-120C345.2,30,339.9,24.6,333.2,24.6z"/>
	<path class="st0" d="M144.6,120.8v4.9h-5.2v17.9h-5.9v-17.9h-5.2v-4.9H144.6z"/>
	<path class="st0" d="M165.7,143.6h-5.9V138h-5.2v5.7h-5.9v-20.1c-0.1-1.4,1-2.6,2.4-2.7c0.1,0,0.2,0,0.3,0H163
		c1.4-0.1,2.6,1,2.7,2.4c0,0.1,0,0.2,0,0.3V143.6z M159.8,133v-6.9c0-0.4-0.3-0.7-0.8-0.7h-3.6c-0.4,0-0.7,0.3-0.7,0.7l0,0v6.9
		H159.8z"/>
	<path class="st0" d="M172,143.6v-22.8h14c1.5-0.1,2.9,1,3,2.6c0,0.1,0,0.2,0,0.3v5.1c0,1.8-1.4,3.3-3.1,3.5
		c2.1,0.5,3.3,1.9,3.3,3.5v5c0.1,1.5-1.1,2.8-2.6,2.9c-0.1,0-0.3,0-0.4,0L172,143.6z M183.4,125.7c0-0.2-0.1-0.4-0.3-0.4l0,0h-5.3
		v4.7h5.3c0.2,0,0.3-0.1,0.3-0.3l0,0V125.7z M183.4,134.7c0-0.2-0.1-0.4-0.3-0.4l0,0h-5.3v5h5.3c0.2,0,0.3-0.1,0.3-0.3l0,0V134.7z"
		/>
</g>
</svg>
